<?xml version="1.0" encoding="UTF-8" standalone="no"?>
<!-- Created with Inkscape (http://www.inkscape.org/) -->

<svg
   xmlns:dc="http://purl.org/dc/elements/1.1/"
   xmlns:cc="http://creativecommons.org/ns#"
   xmlns:rdf="http://www.w3.org/1999/02/22-rdf-syntax-ns#"
   xmlns:svg="http://www.w3.org/2000/svg"
   xmlns="http://www.w3.org/2000/svg"
   xmlns:sodipodi="http://sodipodi.sourceforge.net/DTD/sodipodi-0.dtd"
   xmlns:inkscape="http://www.inkscape.org/namespaces/inkscape"
   width="210mm"
   height="210mm"
   viewBox="0 0 210 210"
   version="1.1"
   id="svg1461"
   inkscape:version="0.92.4 (5da689c313, 2019-01-14)"
   sodipodi:docname="logo.svg"
   inkscape:export-filename="C:\Users\Jorge\Desktop\bitmap.png"
   inkscape:export-xdpi="120.95"
   inkscape:export-ydpi="120.95">
  <defs
     id="defs1455" />
  <sodipodi:namedview
     id="base"
     pagecolor="#ffffff"
     bordercolor="#666666"
     borderopacity="1.0"
     inkscape:pageopacity="0.0"
     inkscape:pageshadow="2"
     inkscape:zoom="0.7"
     inkscape:cx="366.5"
     inkscape:cy="465.80437"
     inkscape:document-units="mm"
     inkscape:current-layer="layer1"
     showgrid="false"
     inkscape:window-width="1920"
     inkscape:window-height="1017"
     inkscape:window-x="-8"
     inkscape:window-y="-8"
     inkscape:window-maximized="1"
     inkscape:snap-page="true" />
  <metadata
     id="metadata1458">
    <rdf:RDF>
      <cc:Work
         rdf:about="">
        <dc:format>image/svg+xml</dc:format>
        <dc:type
           rdf:resource="http://purl.org/dc/dcmitype/StillImage" />
        <dc:title></dc:title>
      </cc:Work>
    </rdf:RDF>
  </metadata>
  <g
     inkscape:label="Layer 1"
     inkscape:groupmode="layer"
     id="layer1"
     transform="translate(0,-87)">
    <rect
       style="fill:#ffffff;fill-opacity:1;stroke:none;stroke-width:7.78999996;stroke-miterlimit:4;stroke-dasharray:none;stroke-opacity:1"
       id="rect2015"
       width="210"
       height="210"
       x="0"
       y="87.000008" />
    <g
       aria-label="$_"
       transform="matrix(0.83161253,0,0,0.84488823,16.98647,31.060971)"
       style="font-style:normal;font-variant:normal;font-weight:normal;font-stretch:normal;font-size:128.28396606px;line-height:1.25;font-family:Consolas;-inkscape-font-specification:Consolas;letter-spacing:0px;word-spacing:0px;fill:#000000;fill-opacity:1;stroke:none;stroke-width:3.20709944"
       id="text2008">
      <path
         d="m 68.846656,130.82227 h 9.082605 l -1.628605,12.21453 q 3.25721,0.3132 6.51442,0.81431 3.319849,0.50111 6.138588,1.19013 v 9.64635 q -3.445126,-0.87694 -6.95289,-1.50332 -3.507765,-0.62639 -6.890252,-0.93958 l -3.570404,26.80934 q 4.19679,1.62861 8.330941,3.5704 4.134152,1.87916 7.391362,4.50999 3.319848,2.56818 5.324285,6.13859 2.067076,3.5704 2.067076,8.51885 0,5.26165 -2.129714,9.33316 -2.129714,4.07152 -5.950672,6.89025 -3.820958,2.81874 -9.207883,4.44735 -5.386924,1.56597 -11.838706,1.87916 l -2.067075,14.908 h -9.145244 l 2.067076,-14.908 q -5.073731,-0.37583 -9.708992,-1.06486 -4.572622,-0.75166 -7.955109,-1.6286 V 211.2503 q 3.946235,1.37805 8.581496,2.25499 4.697899,0.87694 10.398016,1.19014 l 3.695681,-28.1874 q -4.071512,-1.56597 -8.017748,-3.38249 -3.946235,-1.81652 -7.078168,-4.32206 -3.069294,-2.56819 -5.011092,-6.01331 -1.941799,-3.44513 -1.941799,-8.20567 0,-3.88359 1.628605,-7.64191 1.628606,-3.82096 5.073732,-6.82762 3.445126,-3.06929 8.706773,-5.01109 5.261647,-2.00444 12.527731,-2.38027 z m -2.818739,21.29714 q -7.829832,0.68902 -11.462874,3.69568 -3.570404,2.94402 -3.570404,7.57928 0,4.32206 2.944017,7.1408 3.006656,2.7561 8.894689,5.07374 z m 0.751663,62.57602 q 8.456219,-0.62639 12.277177,-3.75832 3.883597,-3.13194 3.883597,-8.51886 0,-2.25499 -0.814303,-4.00887 -0.814303,-1.81653 -2.442908,-3.25721 -1.628605,-1.44069 -4.071512,-2.69347 -2.380269,-1.25277 -5.637479,-2.50554 z"
         style="font-style:normal;font-variant:normal;font-weight:normal;font-stretch:normal;font-family:Consolas;-inkscape-font-specification:Consolas;stroke-width:3.20709944"
         id="path2010"
         inkscape:connector-curvature="0" />
      <path
         d="m 172.9521,250.1489 h -70.53113 v -9.01996 h 70.53113 z"
         style="font-style:normal;font-variant:normal;font-weight:normal;font-stretch:normal;font-family:Consolas;-inkscape-font-specification:Consolas;stroke-width:3.20709944"
         id="path2012"
         inkscape:connector-curvature="0" />
    </g>
  </g>
</svg>
